<?xml version="1.0" encoding="UTF-8"?>
<svg version="1.1" xmlns="http://www.w3.org/2000/svg" width="1384" height="352">
<path d="M0 0 C456.72 0 913.44 0 1384 0 C1384 116.16 1384 232.32 1384 352 C927.28 352 470.56 352 0 352 C0 235.84 0 119.68 0 0 Z " fill="#FEFEFE" transform="translate(0,0)"/>
<path d="M0 0 C0.71559082 0.14953125 1.43118164 0.2990625 2.16845703 0.453125 C12.21456255 2.64999546 21.03736741 7.12299799 30 12 C31.09828125 12.59167969 32.1965625 13.18335937 33.328125 13.79296875 C40.11045097 17.59281035 46.10940381 21.93747484 52 27 C53.30324219 28.10214844 53.30324219 28.10214844 54.6328125 29.2265625 C59.81286894 33.72625332 64.17575094 38.29471787 68 44 C67.14728516 44.8353125 67.14728516 44.8353125 66.27734375 45.6875 C62.66546342 49.25717138 59.0937623 52.80887969 55.8125 56.6875 C51.74754751 61.44599889 47.26385093 65.78675061 42.7980957 70.16479492 C42.20859131 70.74592041 41.61908691 71.3270459 41.01171875 71.92578125 C40.21447388 72.70562378 40.21447388 72.70562378 39.40112305 73.5012207 C37.77930377 75.15445886 37.77930377 75.15445886 36 78 C32.07317678 76.42013856 29.75684972 73.85818666 26.875 70.8125 C10.45991367 54.0261428 -14.59150903 42.9977424 -38.14257812 42.61962891 C-65.99336656 42.67198001 -90.21532028 51.50780099 -110.2890625 71.16796875 C-122.41780381 83.83848381 -130.13504086 98.97121965 -134 116 C-134.17515137 116.71889404 -134.35030273 117.43778809 -134.53076172 118.1784668 C-138.33010594 134.97048372 -137.34899889 153.67331712 -132 170 C-131.62617188 171.14210937 -131.25234375 172.28421875 -130.8671875 173.4609375 C-126.69872139 185.08295227 -120.92689179 195.5457315 -113 205 C-111.88625 206.485 -111.88625 206.485 -110.75 208 C-99.98361954 220.60708422 -83.74109122 229.51009143 -68 234 C-66.88882813 234.31839844 -65.77765625 234.63679687 -64.6328125 234.96484375 C-48.8283567 238.78396058 -30.56057468 238.89046633 -15 234 C-14.37222656 233.80664062 -13.74445313 233.61328125 -13.09765625 233.4140625 C6.29192917 227.29103553 19.92733615 215.37859133 34 201 C39.07580714 202.50075654 42.10692454 205.59844576 45.8125 209.1875 C47.06044042 210.3718924 48.30913277 211.55549305 49.55859375 212.73828125 C50.15397949 213.30498535 50.74936523 213.87168945 51.36279297 214.45556641 C54.48827821 217.40394392 57.74393178 220.19810438 61 223 C62.50096479 224.31139657 64.00097107 225.62389103 65.5 226.9375 C66.50546875 227.81728516 66.50546875 227.81728516 67.53125 228.71484375 C68.0159375 229.13894531 68.500625 229.56304687 69 230 C67.4949232 234.90067691 64.69116998 237.97336246 61.25 241.625 C60.67362793 242.23819092 60.09725586 242.85138184 59.50341797 243.4831543 C46.66938554 256.8283992 31.05373337 266.89206758 14 274 C13.26394531 274.34546875 12.52789062 274.6909375 11.76953125 275.046875 C3.28020297 278.84588593 -5.90056872 280.3545401 -15 282 C-16.25425781 282.22945313 -17.50851563 282.45890625 -18.80078125 282.6953125 C-47.35311239 287.05023304 -77.58939004 284.01577352 -104 272 C-104.5976416 271.73074707 -105.1952832 271.46149414 -105.81103516 271.18408203 C-140.28424252 255.45768943 -165.23911986 227.00226481 -178.8125 192 C-192.04292223 155.32734344 -190.59610553 112.55257934 -174.1875 77.125 C-168.54739431 65.45520732 -161.41690271 54.85513074 -153 45 C-151.98873047 43.78763672 -151.98873047 43.78763672 -150.95703125 42.55078125 C-127.9552885 15.86205606 -92.6540261 -0.70504053 -57.76855469 -3.8190918 C-38.19472369 -5.09812255 -19.19049846 -4.09475296 0 0 Z " fill="#343433" transform="translate(197,63)"/>
<path d="M0 0 C0.79708374 0.00215515 1.59416748 0.0043103 2.41540527 0.00653076 C28.79926675 0.12111649 52.09867467 4.11941824 72.08984375 22.875 C87.78472241 39.17051461 92.61280139 58.96631182 92.55102539 80.86694336 C92.55074299 82.23741656 92.55090229 83.60788992 92.5514679 84.97836304 C92.5517538 88.68238923 92.54589052 92.38638278 92.53889394 96.09040141 C92.53262595 99.96745686 92.53205388 103.84451314 92.53086853 107.72157288 C92.52776536 115.05599377 92.51956566 122.39039969 92.50951904 129.724814 C92.49832638 138.07789876 92.49283952 146.43098426 92.48782361 154.78407466 C92.47738218 171.96022658 92.45904933 189.13635788 92.4375 206.3125 C77.9175 206.3125 63.3975 206.3125 48.4375 206.3125 C48.1075 199.3825 47.7775 192.4525 47.4375 185.3125 C46.15875 186.818125 44.88 188.32375 43.5625 189.875 C30.92002661 203.81514562 13.7545489 210.46816312 -4.83105469 211.49267578 C-28.70191834 212.39633534 -51.65760576 210.70310068 -70.125 193.9375 C-81.61309548 182.91241993 -89.22796118 168.57686055 -89.86328125 152.48046875 C-89.88271434 150.82042165 -89.88626052 149.16012266 -89.875 147.5 C-89.86936035 146.6234375 -89.8637207 145.746875 -89.85791016 144.84375 C-89.57449008 129.64569923 -84.51282751 116.59279068 -73.90234375 105.55859375 C-50.14576052 82.75386026 -16.45999828 83.80131265 14.36273193 84.10650635 C17.88369075 84.13789077 21.4047212 84.15104145 24.92578125 84.16601562 C31.76318683 84.19763592 38.60032302 84.24843052 45.4375 84.3125 C45.32970415 81.59800439 45.20792096 78.88533471 45.078125 76.171875 C45.04928223 75.4092334 45.02043945 74.6465918 44.99072266 73.86083984 C44.59335104 66.0064093 42.10721773 60.559454 37.125 54.5 C25.934388 45.39136232 13.91636487 42.62543775 -0.39111328 42.84594727 C-2.42954629 42.87488708 -4.46535504 42.86650471 -6.50390625 42.85351562 C-18.73509304 42.87191406 -30.42393322 44.71348236 -41.875 49.1875 C-42.5345166 49.44289551 -43.1940332 49.69829102 -43.87353516 49.96142578 C-48.63980323 51.84300069 -53.2294122 53.9973781 -57.7421875 56.4296875 C-59.5625 57.3125 -59.5625 57.3125 -61.5625 57.3125 C-63.54180519 52.68764917 -65.51720027 48.06115541 -67.48901367 43.43310547 C-68.16014506 41.8594069 -68.83233675 40.28616007 -69.50561523 38.71337891 C-70.47399513 36.45072891 -71.43853205 34.18647399 -72.40234375 31.921875 C-72.70341537 31.22068542 -73.004487 30.51949585 -73.31468201 29.79705811 C-74.6396484 26.67450976 -75.90045352 23.64891502 -76.5625 20.3125 C-62.09771144 10.98129326 -46.40782308 5.53741374 -29.5625 2.3125 C-28.71792236 2.13517334 -27.87334473 1.95784668 -27.00317383 1.77514648 C-17.99788877 0.04226342 -9.13414176 -0.04424402 0 0 Z " fill="#333332" transform="translate(369.5625,134.6875)"/>
<path d="M0 0 C0.66837891 0.27875977 1.33675781 0.55751953 2.02539062 0.84472656 C23.32947365 9.85952833 38.85971077 26.70905952 47.7265625 48.02734375 C55.11890509 66.69734806 56 82.23451134 56 103 C0.23 103 -55.54 103 -113 103 C-109.61878515 122.44198539 -106.66152609 139.27163918 -95 155 C-94.34515625 155.91007813 -93.6903125 156.82015625 -93.015625 157.7578125 C-83.75297612 169.89391086 -72.08346231 177.5675955 -58 183 C-56.89914062 183.43441406 -55.79828125 183.86882812 -54.6640625 184.31640625 C-34.51424143 190.93310951 -12.42839185 188.25365461 6.3125 179.1875 C18.79271204 172.81315056 29.25601867 163.74087492 37 152 C41.67105792 153.55701931 45.08705685 156.08447373 49 159 C39.40039227 176.41892458 24.56926578 188.21017086 6.4375 195.875 C5.46635254 196.28661377 5.46635254 196.28661377 4.47558594 196.70654297 C-6.49059484 201.05893194 -17.26122751 202.47445878 -29 202.3125 C-30.16789062 202.31572266 -31.33578125 202.31894531 -32.5390625 202.32226562 C-43.45536337 202.25570281 -54.14673251 201.17273751 -64.4375 197.375 C-65.15139893 197.11412598 -65.86529785 196.85325195 -66.60083008 196.58447266 C-92.00237964 186.93216622 -109.19116032 167.96545886 -120.53515625 143.71875 C-125.51503298 131.6573972 -128.58388746 118.05553092 -129 105 C-129.03867188 104.05036377 -129.03867188 104.05036377 -129.078125 103.08154297 C-130.13924045 74.33194618 -122.08608309 45.98982949 -103 24 C-92.29207799 12.80466191 -79.74592022 4.02617832 -65 -1 C-63.95070313 -1.391875 -62.90140625 -1.78375 -61.8203125 -2.1875 C-43.25707358 -8.03674815 -17.90612283 -7.93416717 0 0 Z " fill="#ABACAC" transform="translate(1321,143)"/>
<path d="M0 0 C15.51 0 31.02 0 47 0 C47 18.15 47 36.3 47 55 C63.83 55 80.66 55 98 55 C98 68.53 98 82.06 98 96 C81.17 96 64.34 96 47 96 C47.06178496 114.57143871 47.06178496 114.57143871 47.16015625 133.14257812 C47.2084175 140.72241413 47.25249012 148.30210541 47.27099609 155.88208008 C47.28619417 161.99658904 47.32069643 168.11071817 47.36830902 174.2250576 C47.3830902 176.55207191 47.39103913 178.87914045 47.39188385 181.20620155 C47.39426501 184.47812523 47.42143839 187.74900894 47.45410156 191.02075195 C47.4490712 191.9723822 47.44404083 192.92401245 47.43885803 193.90447998 C47.54931077 201.1052548 48.72899847 209.02534447 53.44708633 214.75838184 C59.21026194 219.83017727 65.76804556 219.41375407 73.0859375 219.2890625 C79.3419645 218.82704055 85.12229607 217.16473599 90.17578125 213.36328125 C92 212 92 212 94 212 C94.45439453 213.54494141 94.45439453 213.54494141 94.91796875 215.12109375 C95.11817627 215.80155762 95.31838379 216.48202148 95.5246582 217.18310547 C95.97033556 218.69890096 96.41547647 220.21485427 96.86010742 221.73095703 C98.04274859 225.76066653 99.23423751 229.78733046 100.4453125 233.80859375 C100.78912964 234.95726929 100.78912964 234.95726929 101.13989258 236.12915039 C101.58176809 237.60458156 102.02682193 239.0790653 102.4753418 240.55249023 C103.34781357 243.47676284 104 245.92975192 104 249 C85.3233565 260.83054267 66.0919031 266.65756392 43.78857422 262.38476562 C29.83870196 259.05178179 17.53447426 252.62685105 9.6875 240.1875 C2.67267924 227.37005131 -0.32592366 215.6735721 -0.22705078 201.12451172 C-0.22734283 199.9818837 -0.22763489 198.83925568 -0.22793579 197.66200256 C-0.2265521 193.91781795 -0.21103621 190.17383698 -0.1953125 186.4296875 C-0.19157896 183.82081206 -0.1887336 181.21193521 -0.18673706 178.60305786 C-0.18054729 172.45868601 -0.16417077 166.31438624 -0.14403808 160.17004597 C-0.12160065 153.16874828 -0.11066602 146.16744695 -0.10064721 139.1661222 C-0.07980199 124.77736988 -0.04315748 110.38870228 0 96 C-10.23 96 -20.46 96 -31 96 C-31 82.47 -31 68.94 -31 55 C-20.77 55 -10.54 55 0 55 C0 36.85 0 18.7 0 0 Z " fill="#333333" transform="translate(663,83)"/>
<path d="M0 0 C0 16.17 0 32.34 0 49 C-6.27 49.33 -12.54 49.66 -19 50 C-32.68393483 52.43872106 -46.1754108 58.24764024 -54.89453125 69.4296875 C-64.29335453 83.082715 -65.10680738 97.93374196 -65.20532227 114.00097656 C-65.21522186 115.02685379 -65.22512146 116.05273102 -65.23532104 117.10969543 C-65.26655491 120.45331628 -65.29154039 123.79695127 -65.31640625 127.140625 C-65.33700882 129.47760355 -65.35800609 131.81457866 -65.37937927 134.15155029 C-65.43425912 140.26700018 -65.48381703 146.38248177 -65.53222656 152.49798584 C-65.59158379 159.85457279 -65.657622 167.21110251 -65.72252655 174.56764221 C-65.82010639 185.71172616 -65.90925587 196.85584885 -66 208 C-81.84 208 -97.68 208 -114 208 C-114 141.01 -114 74.02 -114 5 C-98.49 5 -82.98 5 -67 5 C-66.67 15.56 -66.34 26.12 -66 37 C-64.02 33.37 -62.04 29.74 -60 26 C-57.26542303 22.38628661 -54.19980045 19.2054538 -51 16 C-50.15308594 15.13568359 -50.15308594 15.13568359 -49.2890625 14.25390625 C-35.66620868 1.46171425 -17.80743197 0 0 0 Z " fill="#353534" transform="translate(618,134)"/>
<path d="M0 0 C2.02899174 -0.01186262 4.05490584 -0.06099314 6.08325195 -0.11157227 C7.36651367 -0.11866211 8.64977539 -0.12575195 9.97192383 -0.13305664 C11.14795166 -0.14651123 12.32397949 -0.15996582 13.53564453 -0.17382812 C17.79727278 0.6248815 18.97589427 2.10400559 21.73364258 5.42553711 C22.96133146 8.1247208 23.7674497 10.88112784 24.54614258 13.73803711 C24.87001953 14.84888672 24.87001953 14.84888672 25.20043945 15.98217773 C25.72601186 17.79248268 26.23187301 19.6084907 26.73364258 21.42553711 C27.41448001 21.42700367 28.09531744 21.42847023 28.79678631 21.42998123 C45.36390127 21.46703463 61.93077804 21.52602966 78.49772167 21.60943985 C86.50938948 21.64924748 94.52095881 21.68163116 102.53271484 21.6965332 C109.51586173 21.70954085 116.49879211 21.7364826 123.48181707 21.78015018 C127.1792535 21.80278525 130.87642269 21.81844659 134.57393456 21.81742096 C138.70194022 21.81653702 142.82915641 21.84676185 146.95703125 21.87963867 C148.18270309 21.87460831 149.40837494 21.86957794 150.67118835 21.86439514 C158.89003973 21.96595093 158.89003973 21.96595093 163.00123596 24.20568848 C165.45323968 27.34760508 165.31402879 29.03380013 165.08850098 32.88269043 C164.44047525 37.52631753 163.17349312 41.93118831 161.81176758 46.40991211 C161.51050964 47.42853333 161.20925171 48.44715454 160.89886475 49.49664307 C160.26257444 51.63636257 159.62015611 53.77426841 158.97192383 55.91040039 C157.98389664 59.17469774 157.02163424 62.44583163 156.06176758 65.71850586 C155.4382937 67.80359822 154.81334407 69.88825 154.18676758 71.97241211 C153.90117981 72.94643982 153.61559204 73.92046753 153.3213501 74.92401123 C150.54738806 83.9551025 150.54738806 83.9551025 146.73364258 87.42553711 C144.04638672 88.49975586 144.04638672 88.49975586 140.95629883 89.11303711 C139.80145996 89.34249023 138.64662109 89.57194336 137.45678711 89.80834961 C131.72755688 90.75808692 125.98872242 91.52713285 120.21951294 92.19000244 C116.6990066 92.59481268 113.18129797 93.02275561 109.66333008 93.44897461 C108.97334427 93.53206879 108.28335846 93.61516296 107.57246399 93.70077515 C101.96329068 94.38217113 96.37859393 95.17954425 90.79614258 96.05053711 C65.8744145 99.89753256 65.8744145 99.89753256 53.73364258 99.42553711 C54.72364258 103.38553711 54.72364258 103.38553711 55.73364258 107.42553711 C56.83167206 107.43584457 57.92970154 107.44615204 59.06100464 107.45677185 C69.39117202 107.55437929 79.72127746 107.65710118 90.05134392 107.76487637 C95.36257701 107.82012365 100.67381558 107.87354654 105.98510742 107.92285156 C111.10741204 107.97046847 116.22964826 108.0228103 121.35187149 108.07847786 C123.30954417 108.09891354 125.26723561 108.11762459 127.22494125 108.13461113 C129.95951901 108.15862829 132.6939668 108.18868648 135.4284668 108.22021484 C136.24414124 108.22597031 137.05981567 108.23172577 137.90020752 108.23765564 C143.50553826 108.31148495 143.50553826 108.31148495 145.73364258 109.42553711 C145.92895508 115.48022461 145.92895508 115.48022461 145.73364258 117.42553711 C143.13211422 120.02706547 141.32085534 119.67465134 137.776474 119.70770264 C136.94217361 119.70522522 136.10787323 119.7027478 135.24829102 119.70019531 C134.3700618 119.70530624 133.49183258 119.71041718 132.58699036 119.71568298 C129.67226415 119.72962699 126.75777325 119.72861808 123.84301758 119.72631836 C121.82000642 119.73020375 119.79699609 119.7345381 117.77398682 119.73930359 C113.52695069 119.74677694 109.27999767 119.74646727 105.03295898 119.74121094 C99.59436877 119.73542661 94.15612026 119.75231687 88.71758652 119.77555561 C84.53623469 119.79030317 80.35496484 119.79116305 76.17359161 119.78804588 C74.16896134 119.78855897 72.16432646 119.79379432 70.15972137 119.8038578 C67.35178116 119.81621923 64.54450221 119.80943128 61.73657227 119.79785156 C60.9103688 119.8054953 60.08416534 119.81313904 59.23292542 119.8210144 C54.3495244 119.77658941 50.93522437 119.18616908 46.73364258 116.42553711 C42.67821091 109.85267711 40.40639827 102.37454046 37.85864258 95.11303711 C37.62875641 94.46168793 37.39887024 93.81033875 37.16201782 93.13925171 C32.72997302 80.56707005 28.55142275 67.91205644 24.42114258 55.23803711 C24.13104309 54.34917816 23.8409436 53.46031921 23.54205322 52.54452515 C20.37647734 42.82813108 17.28637347 33.09011833 14.31567383 23.31225586 C14.05525803 22.46379593 13.79484222 21.615336 13.52653503 20.74116516 C13.29042007 19.95598007 13.05430511 19.17079498 12.81103516 18.36181641 C12.60223221 17.67210251 12.39342926 16.98238861 12.17829895 16.27177429 C11.73364258 14.42553711 11.73364258 14.42553711 11.73364258 11.42553711 C10.71210083 11.44910278 10.71210083 11.44910278 9.66992188 11.47314453 C6.58707977 11.53546933 3.50437014 11.57451969 0.42114258 11.61303711 C-0.65071289 11.63817383 -1.72256836 11.66331055 -2.8269043 11.68920898 C-3.85493164 11.69887695 -4.88295898 11.70854492 -5.94213867 11.71850586 C-6.89000244 11.73421631 -7.83786621 11.74992676 -8.81445312 11.76611328 C-11.26635742 11.42553711 -11.26635742 11.42553711 -13.07958984 10.09863281 C-14.89491872 7.53939628 -14.59006538 5.46839188 -14.26635742 2.42553711 C-10.6413363 -1.19948402 -4.90880065 0.01360434 0 0 Z " fill="#0DA49D" transform="translate(810.266357421875,12.574462890625)"/>
<path d="M0 0 C0.74507812 0.60199219 1.49015625 1.20398438 2.2578125 1.82421875 C3.00289062 2.39527344 3.74796875 2.96632812 4.515625 3.5546875 C17.87229738 14.46806615 25.51909248 29.87436339 29.5703125 46.38671875 C29.72999512 47.03423096 29.88967773 47.68174316 30.05419922 48.34887695 C31.51884385 54.90902835 31.72764437 60.93203305 32.2578125 67.82421875 C-18.5621875 67.82421875 -69.3821875 67.82421875 -121.7421875 67.82421875 C-119.47191164 42.85118427 -111.16152104 20.50414787 -91.7421875 3.82421875 C-66.07373767 -16.80958337 -26.99999181 -20.53959773 0 0 Z " fill="#FEFEFE" transform="translate(1329.7421875,165.17578125)"/>
<path d="M0 0 C5.28 0 10.56 0 16 0 C16 86.79 16 173.58 16 263 C70.12 263 124.24 263 180 263 C180 267.95 180 272.9 180 278 C120.6 278 61.2 278 0 278 C0 186.26 0 94.52 0 0 Z " fill="#AAABAC" transform="translate(798,64)"/>
<path d="M0 0 C4.95 0 9.9 0 15 0 C15 19.8 15 39.6 15 60 C33.15 60 51.3 60 70 60 C70 64.62 70 69.24 70 74 C51.85 74 33.7 74 15 74 C15.01774809 93.3332345 15.05622112 112.66607004 15.13209057 131.999156 C15.16666512 140.97692234 15.19208617 149.95453634 15.19555664 158.93237305 C15.19860706 166.76234304 15.21924159 174.59204119 15.26052457 182.42190629 C15.28175903 186.56342139 15.29450481 190.70455096 15.28615379 194.84612083 C15.27855248 198.75418152 15.29467935 202.66146498 15.32806015 206.56938362 C15.33622099 207.99423814 15.33613013 209.41917103 15.32659721 210.84401703 C15.25604411 222.56090138 17.12320248 232.93876739 25 242 C31.27125931 247.63161867 38.73860236 247.79438912 46.7578125 247.42578125 C53.92295672 246.85520561 60.64599107 244.82905625 66.5625 240.6875 C67.366875 240.130625 68.17125 239.57375 69 239 C72 240 72 240 73.203125 241.9609375 C73.54859375 242.75757813 73.8940625 243.55421875 74.25 244.375 C74.60578125 245.16648437 74.9615625 245.95796875 75.328125 246.7734375 C76 249 76 249 75 252 C61.91777033 260.67484748 47.77242793 264.7118652 32 263 C21.52550307 260.57198111 12.97923816 255.25549727 7.15625 246.1015625 C5.5787351 243.09345811 4.21164357 240.17443067 3 237 C2.74697963 236.34836946 2.49395926 235.69673893 2.2332716 235.02536201 C-0.4325346 227.32860886 -0.40451465 219.88586985 -0.34057617 211.81982422 C-0.33972841 210.31097938 -0.34020794 208.80213331 -0.34190369 207.29328918 C-0.34275926 203.22571887 -0.32520506 199.15841764 -0.30418181 195.09090948 C-0.28534145 190.82951083 -0.2836588 186.56810502 -0.28010559 182.30667114 C-0.27080664 174.24981256 -0.24622218 166.19307709 -0.21605712 158.13627255 C-0.18244592 148.95848177 -0.16601025 139.78068489 -0.15097082 130.60284781 C-0.11967052 111.73514804 -0.06468556 92.86761689 0 74 C-10.89 74 -21.78 74 -33 74 C-33 69.71 -33 65.42 -33 61 C-22.11 61 -11.22 61 0 61 C0 40.87 0 20.74 0 0 Z " fill="#A9AAAA" transform="translate(1099,82)"/>
<path d="M0 0 C1.29541718 0.0028299 2.59083435 0.00565979 3.92550659 0.00857544 C7.33508315 0.01613642 10.7444837 0.03571804 14.1539917 0.0579834 C17.64690776 0.07860623 21.13985284 0.08761195 24.6328125 0.09765625 C31.46100886 0.11897277 38.28908968 0.15301514 45.1171875 0.1953125 C45.23461249 4.48674407 45.30484746 8.77775523 45.3671875 13.0703125 C45.40070313 14.27429688 45.43421875 15.47828125 45.46875 16.71875 C45.58184671 27.12364768 43.39707442 34.82212995 37.1171875 43.1953125 C36.0653125 44.6803125 36.0653125 44.6803125 34.9921875 46.1953125 C28.13595817 54.20473025 16.29900606 58.70983337 6.1171875 60.1953125 C2.05650972 60.45186948 -2.0023189 60.47181256 -6.0703125 60.5078125 C-7.6800293 60.55131836 -7.6800293 60.55131836 -9.32226562 60.59570312 C-18.6963661 60.66942563 -27.75684009 58.66691855 -35.3203125 52.8125 C-41.2335048 46.69234597 -45.15450442 38.4894056 -45.2578125 30.0078125 C-45.1104682 22.76338451 -43.93855584 16.78218956 -39.15234375 11.1640625 C-28.12749567 0.77737928 -14.45407083 -0.12042807 0 0 Z " fill="#FCFCFB" transform="translate(370.8828125,249.8046875)"/>
<path d="M0 0 C4.62 0 9.24 0 14 0 C14 66 14 132 14 200 C9.38 200 4.76 200 0 200 C0 134 0 68 0 0 Z " fill="#A4A4A4" transform="translate(1009,141)"/>
<path d="M0 0 C5.85540903 3.20544942 10.28865626 7.69610263 12.8125 13.9375 C13.59815272 20.33234772 13.52620405 26.52548485 10.21875 32.18359375 C6.76232346 36.49452574 2.32723559 39.98981235 -3.1875 40.9375 C-10.81753014 41.7444242 -17.10861053 41.78504804 -23.30859375 36.88671875 C-28.55119847 31.44792508 -30.47400236 25.80284512 -30.8125 18.3125 C-30.5474496 12.38374108 -29.40322554 8.20365288 -25.1875 3.9375 C-17.31132721 -2.17649406 -9.3187803 -4.29339576 0 0 Z " fill="#F45C07" transform="translate(1025.1875,55.0625)"/>
<path d="M0 0 C2.02899174 -0.01186262 4.05490584 -0.06099314 6.08325195 -0.11157227 C7.36651367 -0.11866211 8.64977539 -0.12575195 9.97192383 -0.13305664 C11.14795166 -0.14651123 12.32397949 -0.15996582 13.53564453 -0.17382812 C17.79727278 0.6248815 18.97589427 2.10400559 21.73364258 5.42553711 C22.96133146 8.1247208 23.7674497 10.88112784 24.54614258 13.73803711 C24.87001953 14.84888672 24.87001953 14.84888672 25.20043945 15.98217773 C25.72601186 17.79248268 26.23187301 19.6084907 26.73364258 21.42553711 C27.41448001 21.42700367 28.09531744 21.42847023 28.79678631 21.42998123 C45.36390127 21.46703463 61.93077804 21.52602966 78.49772167 21.60943985 C86.50938948 21.64924748 94.52095881 21.68163116 102.53271484 21.6965332 C109.51586173 21.70954085 116.49879211 21.7364826 123.48181707 21.78015018 C127.1792535 21.80278525 130.87642269 21.81844659 134.57393456 21.81742096 C138.70194022 21.81653702 142.82915641 21.84676185 146.95703125 21.87963867 C148.18270309 21.87460831 149.40837494 21.86957794 150.67118835 21.86439514 C158.89003973 21.96595093 158.89003973 21.96595093 163.00123596 24.20568848 C165.45323968 27.34760508 165.31402879 29.03380013 165.08850098 32.88269043 C164.44047525 37.52631753 163.17349312 41.93118831 161.81176758 46.40991211 C161.51050964 47.42853333 161.20925171 48.44715454 160.89886475 49.49664307 C160.26257444 51.63636257 159.62015611 53.77426841 158.97192383 55.91040039 C157.98389664 59.17469774 157.02163424 62.44583163 156.06176758 65.71850586 C155.4382937 67.80359822 154.81334407 69.88825 154.18676758 71.97241211 C153.90117981 72.94643982 153.61559204 73.92046753 153.3213501 74.92401123 C150.54738806 83.9551025 150.54738806 83.9551025 146.73364258 87.42553711 C144.04638672 88.49975586 144.04638672 88.49975586 140.95629883 89.11303711 C139.80145996 89.34249023 138.64662109 89.57194336 137.45678711 89.80834961 C131.72755688 90.75808692 125.98872242 91.52713285 120.21951294 92.19000244 C116.6990066 92.59481268 113.18129797 93.02275561 109.66333008 93.44897461 C108.97334427 93.53206879 108.28335846 93.61516296 107.57246399 93.70077515 C101.96329068 94.38217113 96.37859393 95.17954425 90.79614258 96.05053711 C65.8744145 99.89753256 65.8744145 99.89753256 53.73364258 99.42553711 C54.72364258 103.38553711 54.72364258 103.38553711 55.73364258 107.42553711 C56.83167206 107.43584457 57.92970154 107.44615204 59.06100464 107.45677185 C69.39117202 107.55437929 79.72127746 107.65710118 90.05134392 107.76487637 C95.36257701 107.82012365 100.67381558 107.87354654 105.98510742 107.92285156 C111.10741204 107.97046847 116.22964826 108.0228103 121.35187149 108.07847786 C123.30954417 108.09891354 125.26723561 108.11762459 127.22494125 108.13461113 C129.95951901 108.15862829 132.6939668 108.18868648 135.4284668 108.22021484 C136.24414124 108.22597031 137.05981567 108.23172577 137.90020752 108.23765564 C143.50553826 108.31148495 143.50553826 108.31148495 145.73364258 109.42553711 C145.92895508 115.48022461 145.92895508 115.48022461 145.73364258 117.42553711 C143.13211422 120.02706547 141.32085534 119.67465134 137.776474 119.70770264 C136.94217361 119.70522522 136.10787323 119.7027478 135.24829102 119.70019531 C134.3700618 119.70530624 133.49183258 119.71041718 132.58699036 119.71568298 C129.67226415 119.72962699 126.75777325 119.72861808 123.84301758 119.72631836 C121.82000642 119.73020375 119.79699609 119.7345381 117.77398682 119.73930359 C113.52695069 119.74677694 109.27999767 119.74646727 105.03295898 119.74121094 C99.59436877 119.73542661 94.15612026 119.75231687 88.71758652 119.77555561 C84.53623469 119.79030317 80.35496484 119.79116305 76.17359161 119.78804588 C74.16896134 119.78855897 72.16432646 119.79379432 70.15972137 119.8038578 C67.35178116 119.81621923 64.54450221 119.80943128 61.73657227 119.79785156 C60.9103688 119.8054953 60.08416534 119.81313904 59.23292542 119.8210144 C54.34830961 119.77657836 50.93932154 119.18109496 46.73364258 116.42553711 C42.72863557 110.03130986 40.54529137 102.7069107 38.10449219 95.59667969 C37.41537322 93.5962897 36.71068343 91.6018208 36.00512695 89.60717773 C35.56342277 88.33211546 35.1226336 87.05673575 34.68286133 85.78100586 C34.28413818 84.63269287 33.88541504 83.48437988 33.47460938 82.30126953 C32.73364258 79.42553711 32.73364258 79.42553711 33.73364258 76.42553711 C34.40959573 77.83779637 35.07404317 79.25556616 35.73364258 80.67553711 C36.10489258 81.46444336 36.47614258 82.25334961 36.85864258 83.06616211 C37.73364258 85.42553711 37.73364258 85.42553711 37.73364258 89.42553711 C38.39364258 89.42553711 39.05364258 89.42553711 39.73364258 89.42553711 C40.07137695 90.5225293 40.40911133 91.61952148 40.75708008 92.74975586 C41.2074936 94.20421618 41.65802041 95.65864142 42.10864258 97.11303711 C42.33036133 97.83426758 42.55208008 98.55549805 42.78051758 99.29858398 C43.72091687 102.32722287 44.6677614 105.26879296 45.89770508 108.19506836 C46.73364258 110.42553711 46.73364258 110.42553711 46.73364258 114.42553711 C51.55058179 116.93829097 56.13192046 116.69070485 61.42114258 116.61303711 C62.31800781 116.60731689 63.21487305 116.60159668 64.13891602 116.59570312 C69.29298901 116.5389877 74.36864811 116.3597193 79.46801758 115.54663086 C81.73364258 115.42553711 81.73364258 115.42553711 85.13354492 115.9074707 C90.61589797 116.61664214 96.08010198 116.58775342 101.60083008 116.59350586 C103.27473312 116.59849846 103.27473312 116.59849846 104.98245239 116.60359192 C107.32724599 116.60863195 109.67204669 116.61100115 112.0168457 116.61083984 C115.61787452 116.61304276 119.21860471 116.63127396 122.81958008 116.65014648 C125.10082903 116.65307765 127.38207944 116.6550643 129.66333008 116.65600586 C131.28354568 116.66678413 131.28354568 116.66678413 132.93649292 116.67778015 C134.42912155 116.67316521 134.42912155 116.67316521 135.9519043 116.66845703 C137.26806229 116.67059456 137.26806229 116.67059456 138.61080933 116.67277527 C140.95001277 116.6228724 140.95001277 116.6228724 142.73364258 114.42553711 C142.73364258 113.43553711 142.73364258 112.44553711 142.73364258 111.42553711 C141.08992928 111.42339958 141.08992928 111.42339958 139.41300964 111.42121887 C129.09772262 111.40456618 118.78283097 111.3618457 108.46775341 111.29344654 C103.16431687 111.25912156 97.86117008 111.23405801 92.55761719 111.22998047 C87.44155571 111.22570932 82.32614846 111.19734523 77.21029091 111.15210533 C75.25625732 111.13909236 73.30214559 111.13483602 71.34807396 111.13938332 C68.61544081 111.14426244 65.88473973 111.1183182 63.15234375 111.08496094 C62.34026459 111.09358658 61.52818542 111.10221222 60.6914978 111.11109924 C58.43522644 111.06477356 58.43522644 111.06477356 54.73364258 110.42553711 C51.64429826 106.84585336 51.40972206 104.06839787 51.73364258 99.42553711 C56.99433654 97.4268195 62.19152837 96.61975365 67.73364258 95.86303711 C68.664104 95.73227783 69.59456543 95.60151855 70.55322266 95.46679688 C76.95094636 94.59485752 83.29632971 94.04684963 89.74145508 93.66772461 C93.31300198 93.37864379 96.70717748 92.72669017 100.20239258 91.96069336 C114.77001751 88.88080969 129.89988991 87.51163075 144.73364258 86.42553711 C144.73364258 85.76553711 144.73364258 85.10553711 144.73364258 84.42553711 C145.39364258 84.42553711 146.05364258 84.42553711 146.73364258 84.42553711 C147.06364258 83.10553711 147.39364258 81.78553711 147.73364258 80.42553711 C148.39364258 80.42553711 149.05364258 80.42553711 149.73364258 80.42553711 C149.84836914 79.45616211 149.9630957 78.48678711 150.08129883 77.48803711 C150.72079537 73.01942856 151.92465197 68.75736452 153.17114258 64.42553711 C153.38834961 63.65725586 153.60555664 62.88897461 153.8293457 62.09741211 C154.45947259 59.87209914 155.09566866 57.64861145 155.73364258 55.42553711 C156.12049213 54.0714078 156.507223 52.71724458 156.89379883 51.36303711 C157.17094727 50.39366211 157.4480957 49.42428711 157.73364258 48.42553711 C158.39364258 48.42553711 159.05364258 48.42553711 159.73364258 48.42553711 C160.07083305 45.86349167 160.40351411 43.30099393 160.73364258 40.73803711 C160.8290332 40.01680664 160.92442383 39.29557617 161.02270508 38.55249023 C161.50047992 34.8156084 161.85284052 31.2026218 161.73364258 27.42553711 C155.27127454 25.09244385 149.16529913 25.14583405 142.34423828 25.17016602 C141.11093781 25.16654556 139.87763733 25.16292511 138.60696411 25.15919495 C135.93652309 25.15231539 133.26633485 25.14890538 130.59591103 25.15114212 C126.37256205 25.15398622 122.14937883 25.13958457 117.92607117 25.12216187 C105.92111662 25.07523284 93.9161751 25.05118198 81.91113281 25.04467773 C75.2714949 25.04092871 68.63204628 25.02291873 61.99248952 24.98958337 C57.79443789 24.96936689 53.59687429 24.96699897 49.39879382 24.97786355 C46.17740759 24.98108019 42.95618562 24.95838733 39.73486328 24.93969727 C38.57269791 24.94786972 37.41053253 24.95604218 36.21315002 24.96446228 C35.14916992 24.95343979 34.08518982 24.9424173 32.9889679 24.93106079 C32.06520513 24.92997126 31.14144236 24.92888172 30.18968678 24.92775917 C26.96411166 24.26818025 25.78447997 22.94652948 23.73364258 20.42553711 C22.67114258 17.73803711 22.67114258 17.73803711 21.73364258 14.42553711 C21.21924364 12.86090701 20.69805169 11.29849871 20.17114258 9.73803711 C19.35864258 7.30053711 18.54614258 4.86303711 17.73364258 2.42553711 C8.16364258 2.75553711 -1.40635742 3.08553711 -11.26635742 3.42553711 C-11.26635742 5.07553711 -11.26635742 6.72553711 -11.26635742 8.42553711 C-4.00635742 8.75553711 3.25364258 9.08553711 10.73364258 9.42553711 C10.73364258 9.75553711 10.73364258 10.08553711 10.73364258 10.42553711 C6.9420396 10.48340379 3.15054947 10.51908764 -0.64135742 10.55053711 C-2.26170898 10.57567383 -2.26170898 10.57567383 -3.91479492 10.60131836 C-4.94604492 10.60776367 -5.97729492 10.61420898 -7.03979492 10.62084961 C-8.4694458 10.63656006 -8.4694458 10.63656006 -9.92797852 10.65258789 C-12.26635742 10.42553711 -12.26635742 10.42553711 -14.26635742 8.42553711 C-14.51635742 5.42553711 -14.51635742 5.42553711 -14.26635742 2.42553711 C-10.6413363 -1.19948402 -4.90880065 0.01360434 0 0 Z " fill="#2F9D97" transform="translate(810.266357421875,12.574462890625)"/>
<path d="M0 0 C3.5677811 2.35149209 5.84221079 4.99692157 7.75 8.8125 C8.15331428 14.05558569 7.61051133 17.37377553 4.75 21.8125 C0.32701355 25.90376246 -3.1105105 27.18311749 -9.1875 27.09375 C-13.55494274 26.49818963 -16.26306375 23.89812988 -19.125 20.75 C-20.89882705 16.11834049 -21.02360971 11.69770205 -20.25 6.8125 C-18.63735434 3.5744099 -16.31259073 1.61860332 -13.4375 -0.5625 C-8.63065912 -1.93588311 -4.6064147 -1.68311307 0 0 Z " fill="#11A198" transform="translate(880.25,139.1875)"/>
<path d="M0 0 C3.6151861 1.97743401 7.12524152 4.25048304 9 8 C9.40837661 12.87695917 9.64885631 17.44274485 7.75 22 C4.0037851 26.28138846 0.910622 27.84339164 -4.8125 28.3125 C-9.19620197 28.24803379 -11.64568303 26.88627274 -15 24 C-18.58231967 20.05944836 -18.55959103 15.7733271 -18.421875 10.6640625 C-17.7499162 6.42076708 -16.1940429 4.83108348 -13 2 C-8.74283555 -0.50370123 -4.83507763 -0.93225353 0 0 Z " fill="#F56306" transform="translate(941,138)"/>
<path d="M0 0 C0.4070517 0.81205399 0.81410339 1.62410797 1.23348999 2.46076965 C5.6744613 6.53689773 10.44490241 5.68529317 16.26416016 5.62768555 C17.51974228 5.63495667 18.7753244 5.64222778 20.06895447 5.64971924 C22.79685738 5.66527716 25.52414584 5.66511622 28.25206375 5.65271568 C32.56295843 5.63318394 36.87330594 5.64836402 41.18417358 5.66816711 C47.99929129 5.6953129 54.81418612 5.69880812 61.62934721 5.69239408 C73.84269423 5.68144901 86.05597481 5.70598778 98.26925313 5.74614173 C102.55725359 5.75924057 106.84505025 5.76045574 111.13306069 5.7520088 C114.4202577 5.74754501 117.70743526 5.75521009 120.99462891 5.76049805 C122.18739944 5.75480301 123.38016998 5.74910797 124.60908508 5.74324036 C126.23267693 5.74914688 126.23267693 5.74914688 127.8890686 5.75517273 C128.8333201 5.75420939 129.7775716 5.75324606 130.75043678 5.75225353 C133 6 133 6 135 8 C91.11 8 47.22 8 2 8 C0 3 0 3 0 0 Z " fill="#C5F6F4" transform="translate(835,27)"/>
<path d="M0 0 C2.64 0 5.28 0 8 0 C5 2 5 2 3 3 C3 3.99 3 4.98 3 6 C4.62492119 6.01213028 4.62492119 6.01213028 6.28266907 6.02450562 C16.48012854 6.10191305 26.67745369 6.18963859 36.87473774 6.28752708 C42.11755528 6.33752206 47.36035236 6.38385181 52.60327148 6.421875 C57.66079716 6.45868736 62.71815292 6.50503624 67.77553368 6.55806351 C69.70724705 6.57662901 71.63899687 6.59172896 73.57076454 6.60334396 C76.27171947 6.62016955 78.97228343 6.64919547 81.6730957 6.68115234 C82.47582413 6.68331253 83.27855255 6.68547272 84.10560608 6.68769836 C87.92467387 6.7456129 89.74659066 6.83106044 93 9 C93.1875 12.625 93.1875 12.625 93 16 C92.67 16 92.34 16 92 16 C92 14.02 92 12.04 92 10 C62.3 9.67 32.6 9.34 2 9 C0.11656068 5.23312136 -0.22057835 3.97041037 0 0 Z " fill="#C1F2F0" transform="translate(864,112)"/>
<path d="M0 0 C0.99 0.99 0.99 0.99 2 2 C1.77810219 8.10218978 1.77810219 8.10218978 -0.625 10.875 C-5.71538102 13.28623311 -11.41447163 13.11743434 -16.95068359 13.03759766 C-17.60714874 13.02959641 -18.26361389 13.02159515 -18.93997192 13.01335144 C-21.09290725 12.98566707 -23.24562659 12.95007218 -25.3984375 12.9140625 C-26.91711914 12.89223703 -28.43580625 12.87079013 -29.95449829 12.84970093 C-33.13688375 12.80431267 -36.31918099 12.75514188 -39.50146484 12.703125 C-43.52951921 12.63746664 -47.55763647 12.57988584 -51.58585167 12.52509499 C-54.72625274 12.48165529 -57.86658765 12.43438492 -61.00691605 12.38599777 C-62.48887274 12.3634824 -63.97084461 12.34193968 -65.45283127 12.32149124 C-75.99193421 12.17252792 -86.48275246 11.69334463 -97 11 C-97 10.01 -97 9.02 -97 8 C-96.01 8.33 -95.02 8.66 -94 9 C-91.10478957 9.10694555 -88.23329787 9.15726546 -85.33764648 9.16113281 C-84.45284607 9.16609772 -83.56804565 9.17106262 -82.65643311 9.17617798 C-79.72797878 9.19079069 -76.79957855 9.19759858 -73.87109375 9.203125 C-71.8399302 9.20887525 -69.80876666 9.214633 -67.77760315 9.22039795 C-63.51978299 9.23090406 -59.26198169 9.23674992 -55.00415039 9.24023438 C-49.53719389 9.24573167 -44.07048488 9.26978762 -38.60360622 9.29820633 C-34.40956378 9.31678541 -30.21558167 9.32203568 -26.02150154 9.32357025 C-24.00518497 9.32660581 -21.98886967 9.33466452 -19.97259331 9.34775543 C-17.15918696 9.36472437 -14.34639508 9.36295879 -11.53295898 9.35644531 C-10.27443871 9.37026749 -10.27443871 9.37026749 -8.99049377 9.3843689 C-6.44349474 9.40140568 -6.44349474 9.40140568 -3 9 C-0.87491756 5.81237635 -0.4979837 3.73487777 0 0 Z " fill="#E2FEFE" transform="translate(957,122)"/>
<path d="M0 0 C2.5499869 1.27499345 2.65976415 2.18491352 3.625 4.8125 C4.01558594 5.84310547 4.01558594 5.84310547 4.4140625 6.89453125 C5 9 5 9 5 13 C5.66 13 6.32 13 7 13 C7.33773437 14.09699219 7.67546875 15.19398437 8.0234375 16.32421875 C8.47385102 17.77867907 8.92437784 19.23310431 9.375 20.6875 C9.59671875 21.40873047 9.8184375 22.12996094 10.046875 22.87304688 C10.98727429 25.90168576 11.93411882 28.84325585 13.1640625 31.76953125 C14 34 14 34 14 38 C18.81693922 40.51275386 23.39827788 40.26516774 28.6875 40.1875 C29.58436523 40.18177979 30.48123047 40.17605957 31.40527344 40.17016602 C36.55934643 40.11345059 41.63500553 39.93418219 46.734375 39.12109375 C49.5058614 38.97296258 52.13048982 39.38542454 54.87207031 39.76196289 C58.24566185 40.13934377 61.61237626 40.06095878 65 40 C73.37031485 39.91770889 81.65624732 40.37113035 90 41 C90 41.33 90 41.66 90 42 C80.56843939 42.11591075 71.13712438 42.2047234 61.7050066 42.25906086 C57.32513564 42.28514188 52.94575238 42.3205118 48.56616211 42.37719727 C44.33861698 42.43157163 40.11154057 42.46143179 35.88367271 42.47438622 C34.27169097 42.48361648 32.65973455 42.50164159 31.04795265 42.52865028 C28.78767336 42.56501547 26.52932415 42.56994264 24.26879883 42.56762695 C22.98306473 42.57873001 21.69733063 42.58983307 20.37263489 42.60127258 C16.10481919 41.84040737 14.68322732 40.33018592 12 37 C10.54614258 34.00488281 10.54614258 34.00488281 9.39453125 30.703125 C8.96849609 29.4965625 8.54246094 28.29 8.10351562 27.046875 C7.7850769 26.11004883 7.7850769 26.11004883 7.46020508 25.15429688 C6.81737041 23.26431934 6.15191926 21.38208393 5.48632812 19.5 C3.23804774 13.04692043 1.29985512 6.70986663 0 0 Z " fill="#239991" transform="translate(843,89)"/>
<path d="M0 0 C3.6151861 1.97743401 7.12524152 4.25048304 9 8 C9.40837661 12.87695917 9.64885631 17.44274485 7.75 22 C4.0037851 26.28138846 0.910622 27.84339164 -4.8125 28.3125 C-9.19620197 28.24803379 -11.64568303 26.88627274 -15 24 C-18.58231967 20.05944836 -18.55959103 15.7733271 -18.421875 10.6640625 C-17.7499162 6.42076708 -16.1940429 4.83108348 -13 2 C-8.74283555 -0.50370123 -4.83507763 -0.93225353 0 0 Z M-16 9 C-16.36270484 11.74243563 -16.36270484 11.74243563 -16.1875 14.6875 C-16.16042969 15.68136719 -16.13335938 16.67523438 -16.10546875 17.69921875 C-16.07066406 18.45847656 -16.03585937 19.21773437 -16 20 C-14.02 20.99 -14.02 20.99 -12 22 C-12 22.66 -12 23.32 -12 24 C-7.70692438 26.42398147 -3.84787759 26.86569243 1 26 C4.09632649 23.56246638 5.82300487 21.26549269 8 18 C8.24055468 15.94290404 8.24055468 15.94290404 8.125 13.8125 C8.08375 12.554375 8.0425 11.29625 8 10 C7.34 10 6.68 10 6 10 C5.79375 9.401875 5.5875 8.80375 5.375 8.1875 C3.42523898 5.08560747 1.38616146 4.30236979 -2 3 C-7.86227788 2.28217006 -12.36208325 4.34346656 -16 9 Z " fill="#D47332" transform="translate(941,138)"/>
<path d="M0 0 C3.5677811 2.35149209 5.84221079 4.99692157 7.75 8.8125 C8.15331428 14.05558569 7.61051133 17.37377553 4.75 21.8125 C0.32701355 25.90376246 -3.1105105 27.18311749 -9.1875 27.09375 C-13.55494274 26.49818963 -16.26306375 23.89812988 -19.125 20.75 C-20.89882705 16.11834049 -21.02360971 11.69770205 -20.25 6.8125 C-18.63735434 3.5744099 -16.31259073 1.61860332 -13.4375 -0.5625 C-8.63065912 -1.93588311 -4.6064147 -1.68311307 0 0 Z M-18.25 5.8125 C-19.19636464 10.12456471 -19.56449169 14.36583825 -18.625 18.6875 C-16.69442266 21.67111953 -15.41211816 23.07010836 -12.25 24.8125 C-8.55825489 25.14007738 -4.94549735 25.04549108 -1.25 24.8125 C-0.92 23.8225 -0.59 22.8325 -0.25 21.8125 C0.74 21.8125 1.73 21.8125 2.75 21.8125 C5.76496811 16.78755315 6.38533325 13.53049925 5.75 7.8125 C3.82195216 4.40133844 2.43392385 3.1247261 -1.125 1.5 C-7.96898406 -0.00567649 -13.12063575 0.68313575 -18.25 5.8125 Z " fill="#329A91" transform="translate(880.25,139.1875)"/>
<path d="M0 0 C3.28994125 1.71447643 4.45320491 2.52355736 6.5625 5.6875 C6.02882813 5.48253906 5.49515625 5.27757812 4.9453125 5.06640625 C-3.2588046 2.09986564 -11.08143275 0.31293438 -19.4375 3.6875 C-24.1093191 6.20047575 -24.1093191 6.20047575 -26.4375 10.6875 C-27.4275 11.0175 -28.4175 11.3475 -29.4375 11.6875 C-27.58666856 5.79849086 -23.97292367 2.36516 -18.6875 -0.625 C-11.97559137 -3.69186462 -6.59201051 -3.13001938 0 0 Z " fill="#DA6E30" transform="translate(1025.4375,55.3125)"/>
<path d="M0 0 C2.99358152 2.49747806 3.83190584 4.8997369 4.9375 8.59375 C5.27523437 9.7075 5.61296875 10.82125 5.9609375 11.96875 C6.30382812 13.1340625 6.64671875 14.299375 7 15.5 C7.34289062 16.634375 7.68578125 17.76875 8.0390625 18.9375 C9.91151349 25.16947429 11.69032355 31.42120164 13.3684082 37.70825195 C14.14049827 40.50980178 15.03682015 43.25864198 16 46 C15.34 46 14.68 46 14 46 C12.31970165 41.05880317 10.64768196 36.11490667 8.98291016 31.16845703 C8.41675737 29.48997675 7.84844256 27.81222398 7.27783203 26.13525391 C1.44595349 8.98687551 1.44595349 8.98687551 0 0 Z " fill="#279A90" transform="translate(822,24)"/>
<path d="M0 0 C1.19109375 -0.00386719 1.19109375 -0.00386719 2.40625 -0.0078125 C4.5 0.125 4.5 0.125 6.5 1.125 C7.125 3.1875 7.125 3.1875 7.5 5.125 C6.76394531 5.01800781 6.02789063 4.91101563 5.26953125 4.80078125 C-0.77820649 3.95787767 -0.77820649 3.95787767 -6.5625 5.4375 C-9.60697502 8.08913953 -10.73678575 9.23845278 -11.125 13.25 C-11.24875 14.52875 -11.3725 15.8075 -11.5 17.125 C-11.83 17.125 -12.16 17.125 -12.5 17.125 C-13.41643096 7.43459115 -13.41643096 7.43459115 -11.234375 4.31640625 C-7.50590667 1.26666395 -4.70984974 -0.01529172 0 0 Z " fill="#DE7028" transform="translate(936.5,137.875)"/>
<path d="M0 0 C0.66 0 1.32 0 2 0 C2.315109 5.2518167 1.8689708 8.54814877 -1 13 C-5.42395253 17.09215609 -8.85727519 18.36348817 -14.93359375 18.28515625 C-18.35340256 17.81323556 -20.4265947 16.20577598 -23 14 C-24.375 11.75 -24.375 11.75 -25 10 C-24.34 10 -23.68 10 -23 10 C-23 10.66 -23 11.32 -23 12 C-22.01 12.33 -21.02 12.66 -20 13 C-20 13.66 -20 14.32 -20 15 C-15.71 15 -11.42 15 -7 15 C-6.67 14.34 -6.34 13.68 -6 13 C-5.01 13 -4.02 13 -3 13 C-1.41744803 8.67435795 -0.54855348 4.571279 0 0 Z " fill="#3B9F96" transform="translate(886,148)"/>
<path d="M0 0 C4.62 0 9.24 0 14 0 C14.33 0.66 14.66 1.32 15 2 C13.91332031 1.93039063 13.91332031 1.93039063 12.8046875 1.859375 C6.64831587 1.62953713 2.80401894 1.68870095 -2 6 C-4.23920243 9.35880365 -4.24603334 10.51576604 -4.1875 14.4375 C-4.18105469 15.38496094 -4.17460938 16.33242187 -4.16796875 17.30859375 C-4.01959281 19.6860594 -3.67263878 21.72379037 -3 24 C-3.99 23.67 -4.98 23.34 -6 23 C-7.41693757 20.16612485 -7.1699013 17.71970627 -7.1875 14.5625 C-7.20167969 13.40878906 -7.21585938 12.25507813 -7.23046875 11.06640625 C-7 8 -7 8 -5 5 C-4.34 5 -3.68 5 -3 5 C-3 4.01 -3 3.02 -3 2 C-2.01 2 -1.02 2 0 2 C0 1.34 0 0.68 0 0 Z " fill="#FEECD3" transform="translate(928,137)"/>
<path d="M0 0 C0.33 0 0.66 0 1 0 C1.08160748 1.89510699 1.13946459 3.79124504 1.1875 5.6875 C1.23970703 7.27111328 1.23970703 7.27111328 1.29296875 8.88671875 C0.96063055 12.41836599 0.11678496 14.18255429 -2 17 C-5.86968167 19.57978778 -9.33406448 20.79554586 -14 21 C-17.23175704 20.04460878 -20.07999104 18.67054886 -23 17 C-22.67 16.34 -22.34 15.68 -22 15 C-21.505 15.33 -21.01 15.66 -20.5 16 C-15.68425598 17.92629761 -11.43625384 17.51488345 -6.6875 15.8125 C-3.56715336 13.70808017 -2.43633499 12.47744262 -1 9 C-0.48695511 6.00723817 -0.19139018 3.02924462 0 0 Z " fill="#FAE2C8" transform="translate(950,148)"/>
<path d="M0 0 C-0.804375 0.61875 -1.60875 1.2375 -2.4375 1.875 C-5.03874519 3.74164041 -5.03874519 3.74164041 -6 6 C-6.09657872 7.7895469 -6.12980468 9.58285534 -6.125 11.375 C-6.12757813 12.33148438 -6.13015625 13.28796875 -6.1328125 14.2734375 C-6.01551878 16.68140854 -5.68675951 18.69990068 -5 21 C-8 20 -8 20 -9.1875 17.9375 C-10.7432525 12.31285636 -10.64393656 7.28787312 -8 2 C-7.34 2 -6.68 2 -6 2 C-6 1.34 -6 0.68 -6 0 C-3.50907189 -1.24546405 -2.58919267 -0.7767578 0 0 Z " fill="#DDFBFA" transform="translate(867,140)"/>
<path d="M0 0 C3.57054792 3.33251139 5.73001073 5.80241288 6.3359375 10.734375 C6.42170929 17.35595704 6.07124634 22.58901445 2 28 C-0.75 30.5 -0.75 30.5 -3 32 C-3.33 31.34 -3.66 30.68 -4 30 C-3.01 28.515 -3.01 28.515 -2 27 C-1.01 27 -0.02 27 1 27 C1 26.01 1 25.02 1 24 C1.66 24 2.32 24 3 24 C4.57923919 16.10380405 4.886839 10.65692076 0.875 3.6640625 C0 2 0 2 0 0 Z " fill="#D16E34" transform="translate(1032,61)"/>
<path d="M0 0 C7.92 0.33 15.84 0.66 24 1 C28 13.5 28 13.5 28 18 C27.34 18 26.68 18 26 18 C25.33011414 15.70922959 24.66396838 13.41748541 24 11.125 C23.80921875 10.47402344 23.6184375 9.82304688 23.421875 9.15234375 C22 4.2265625 22 4.2265625 22 2 C14.74 2 7.48 2 0 2 C0 1.34 0 0.68 0 0 Z " fill="#CBFAF9" transform="translate(798,23)"/>
<path d="M0 0 C0.99 0.33 1.98 0.66 3 1 C2.34 1.721875 1.68 2.44375 1 3.1875 C-2.64843022 8.62133225 -1.72324146 16.23669277 -0.5390625 22.3984375 C0.01398023 24.46190929 0.01398023 24.46190929 1 27 C-2 26 -2 26 -3.1796875 23.92578125 C-4.19410477 20.30769297 -4.21756036 16.90771435 -4.125 13.1875 C-4.11597656 12.49462891 -4.10695313 11.80175781 -4.09765625 11.08789062 C-4.07426157 9.39177605 -4.03839641 7.69584129 -4 6 C-3.34 6 -2.68 6 -2 6 C-1.855625 5.195625 -1.71125 4.39125 -1.5625 3.5625 C-1 1 -1 1 0 0 Z " fill="#FEEAD4" transform="translate(997,60)"/>
<path d="M0 0 C9.93436141 -0.78291815 9.93436141 -0.78291815 14.0625 2.25 C17.22873888 6.74401648 18.29196631 9.55352646 18.3125 15.125 C18.32925781 16.17945313 18.34601562 17.23390625 18.36328125 18.3203125 C18.24339844 19.20460937 18.12351562 20.08890625 18 21 C17.01 21.66 16.02 22.32 15 23 C15.165 22.319375 15.33 21.63875 15.5 20.9375 C16.3515557 15.93461029 16.68942407 12.37884814 14.375 7.75 C10.32541107 3.06100229 6.03892559 1.71891971 0 1 C0 0.67 0 0.34 0 0 Z " fill="#D6FAF9" transform="translate(871,137)"/>
<path d="M0 0 C0.33 0.66 0.66 1.32 1 2 C-0.14453125 3.984375 -0.14453125 3.984375 -2 6 C-4.69921875 6.390625 -4.69921875 6.390625 -7.6875 6.25 C-8.68136719 6.21390625 -9.67523437 6.1778125 -10.69921875 6.140625 C-11.45847656 6.09421875 -12.21773437 6.0478125 -13 6 C-13 6.66 -13 7.32 -13 8 C-18.94 8 -24.88 8 -31 8 C-31 7.67 -31 7.34 -31 7 C-30.10861328 6.87939209 -30.10861328 6.87939209 -29.19921875 6.75634766 C-26.46549987 6.38380937 -23.73276777 6.00444973 -21 5.625 C-20.06542969 5.49867187 -19.13085938 5.37234375 -18.16796875 5.2421875 C-8.31482801 4.3733558 -8.31482801 4.3733558 0 0 Z " fill="#CCF5F3" transform="translate(959,97)"/>
<path d="M0 0 C2.64 0 5.28 0 8 0 C5 2 5 2 3 3 C3 4.65 3 6.3 3 8 C12.24 8 21.48 8 31 8 C31 8.33 31 8.66 31 9 C21.43 9 11.86 9 2 9 C0.11656068 5.23312136 -0.22057835 3.97041037 0 0 Z " fill="#BFFDF9" transform="translate(864,112)"/>
<path d="M0 0 C1.32 0 2.64 0 4 0 C4 0.66 4 1.32 4 2 C11.26 2 18.52 2 26 2 C22.49448579 5.50551421 18.48703218 5.20534241 13.6875 5.3125 C7.85871535 5.29280816 4.64710869 4.45831344 0 1 C0 0.67 0 0.34 0 0 Z " fill="#D66A2D" transform="translate(1002,91)"/>
<path d="M0 0 C5.03534236 -0.0990984 10.07011342 -0.1715758 15.10620117 -0.21972656 C16.81821586 -0.23980505 18.53016228 -0.26707392 20.24194336 -0.30175781 C22.70704008 -0.35044401 25.1712279 -0.37300573 27.63671875 -0.390625 C28.39836838 -0.41127014 29.16001801 -0.43191528 29.94474792 -0.45318604 C34.94286267 -0.45528225 37.46184807 0.46490611 41 4 C40.67 4.66 40.34 5.32 40 6 C39.01 5.34 38.02 4.68 37 4 C37 3.34 37 2.68 37 2 C18.685 1.505 18.685 1.505 0 1 C0 0.67 0 0.34 0 0 Z " fill="#349692" transform="translate(934,35)"/>
<path d="M0 0 C0 0.33 0 0.66 0 1 C-2.31 1 -4.62 1 -7 1 C-7 1.66 -7 2.32 -7 3 C-9.77723925 3.78688445 -12.22610077 4.11949924 -15.109375 4.09765625 C-15.86347656 4.09443359 -16.61757813 4.09121094 -17.39453125 4.08789062 C-18.17183594 4.07951172 -18.94914063 4.07113281 -19.75 4.0625 C-20.54277344 4.05798828 -21.33554687 4.05347656 -22.15234375 4.04882812 C-24.10159508 4.03708565 -26.05080738 4.01915146 -28 4 C-28 3.67 -28 3.34 -28 3 C-24.83486722 2.48996146 -21.66769716 1.99384043 -18.5 1.5 C-17.613125 1.35691406 -16.72625 1.21382813 -15.8125 1.06640625 C-10.46923901 0.24134389 -5.40603486 -0.15157107 0 0 Z " fill="#CBF5F3" transform="translate(928,105)"/>
<path d="M0 0 C2.54661734 3.81992601 3.74731218 7.72838183 5.1875 12.0625 C5.47302734 12.89072266 5.75855469 13.71894531 6.05273438 14.57226562 C6.31763672 15.36439453 6.58253906 16.15652344 6.85546875 16.97265625 C7.22128052 18.05945679 7.22128052 18.05945679 7.59448242 19.16821289 C8 21 8 21 7 23 C5 22 5 22 4.21875 19.9609375 C3.9815625 19.10757813 3.744375 18.25421875 3.5 17.375 C3.24605469 16.47136719 2.99210938 15.56773438 2.73046875 14.63671875 C2.48941406 13.76660156 2.24835937 12.89648438 2 12 C1.608125 10.741875 1.21625 9.48375 0.8125 8.1875 C0.07374055 5.28928985 -0.17992457 2.96875547 0 0 Z " fill="#C3F3F0" transform="translate(826,41)"/>
<path d="M0 0 C2.25 0.4375 2.25 0.4375 5 2 C9.04189015 8.20416006 10.40973106 15.87993225 12 23 C8.98732456 20.20017663 8.17764463 17.97455063 7 14 C6.48398174 12.43590321 5.9628998 10.87347042 5.4375 9.3125 C4.625 6.875 3.8125 4.4375 3 2 C2.01 2 1.02 2 0 2 C0 1.34 0 0.68 0 0 Z " fill="#3DA099" transform="translate(825,13)"/>
<path d="M0 0 C1.485 0.99 1.485 0.99 3 2 C8.51538504 5.15962341 13.92797441 4.5180064 20 3 C19.67 3.66 19.34 4.32 19 5 C18.34 5 17.68 5 17 5 C17 5.66 17 6.32 17 7 C15.39592672 7.02708567 13.7917215 7.04643483 12.1875 7.0625 C10.84751953 7.07990234 10.84751953 7.07990234 9.48046875 7.09765625 C7 7 7 7 4 6 C4 5.34 4 4.68 4 4 C2.68 3.67 1.36 3.34 0 3 C0 2.01 0 1.02 0 0 Z " fill="#D3F8F6" transform="translate(862,161)"/>
<path d="M0 0 C-0.99 0.33 -1.98 0.66 -3 1 C-3.33 1.66 -3.66 2.32 -4 3 C-7.3 3 -10.6 3 -14 3 C-14 2.34 -14 1.68 -14 1 C-14.99 0.67 -15.98 0.34 -17 0 C-14.9174133 -0.19561869 -12.83388144 -0.38119313 -10.75 -0.5625 C-9.58984375 -0.66691406 -8.4296875 -0.77132812 -7.234375 -0.87890625 C-4.48128523 -0.98198087 -2.580018 -0.86213473 0 0 Z " fill="#FBE1C9" transform="translate(1026,96)"/>
<path d="M0 0 C1.9375 0.5 1.9375 0.5 4 2 C4.68790422 4.69658452 4.81946464 7.2017019 5 10 C7.475 10.99 7.475 10.99 10 12 C10 12.66 10 13.32 10 14 C7.16867679 13.37081707 5.45251205 12.67579102 3.8125 10.2265625 C2.11572288 6.87043717 0.82426338 3.67621469 0 0 Z " fill="#389F96" transform="translate(852,117)"/>
<path d="M0 0 C0.99 0.33 1.98 0.66 3 1 C4.01802737 3.69771782 4.11933332 6.2480017 4.09765625 9.109375 C4.09282227 10.24052734 4.09282227 10.24052734 4.08789062 11.39453125 C4.07951172 12.17183594 4.07113281 12.94914062 4.0625 13.75 C4.05798828 14.54277344 4.05347656 15.33554688 4.04882812 16.15234375 C4.03708565 18.10159508 4.01915146 20.05080738 4 22 C3.01 22.33 2.02 22.66 1 23 C1.16113281 22.29746094 1.32226562 21.59492187 1.48828125 20.87109375 C2.72006581 13.95993612 2.88680189 6.49530425 0 0 Z " fill="#FEE0C7" transform="translate(1035,63)"/>
<path d="M0 0 C0.33 0 0.66 0 1 0 C1.76681614 8.77578475 1.76681614 8.77578475 -0.11328125 11.77734375 C-1.5 13.125 -1.5 13.125 -4 15 C-3.52229477 13.06213915 -3.04278429 11.12472326 -2.5625 9.1875 C-2.29566406 8.10855469 -2.02882813 7.02960938 -1.75390625 5.91796875 C-1.23922588 3.9259157 -0.65062825 1.95188476 0 0 Z " fill="#C6F2EF" transform="translate(964,82)"/>
<path d="M0 0 C1.49080078 0.02707031 1.49080078 0.02707031 3.01171875 0.0546875 C3.77097656 0.07789063 4.53023437 0.10109375 5.3125 0.125 C5.3125 0.785 5.3125 1.445 5.3125 2.125 C0.6925 2.785 -3.9275 3.445 -8.6875 4.125 C-8.6875 3.465 -8.6875 2.805 -8.6875 2.125 C-5.26655758 -0.15562828 -4.00562778 -0.09425007 0 0 Z " fill="#FEEFDC" transform="translate(1014.6875,50.875)"/>
<path d="M0 0 C0.33 0 0.66 0 1 0 C1.04898438 0.71285156 1.09796875 1.42570312 1.1484375 2.16015625 C1.58128523 7.70508491 2.24028816 12.72086449 4 18 C3.01 17.67 2.02 17.34 1 17 C-0.42610133 13.57735681 -0.09901205 9.90120467 -0.0625 6.25 C-0.05347656 5.07953125 -0.04445313 3.9090625 -0.03515625 2.703125 C-0.02355469 1.81109375 -0.01195312 0.9190625 0 0 Z " fill="#F6C4A3" transform="translate(994,69)"/>
<path d="M0 0 C2.64 0 5.28 0 8 0 C5 2 5 2 3 3 C3 4.32 3 5.64 3 7 C2.34 7 1.68 7 1 7 C0.67 4.69 0.34 2.38 0 0 Z " fill="#C0F2F1" transform="translate(864,112)"/>
<path d="M0 0 C2.40034102 3.60051153 4.32187705 6.96144535 3.625 11.375 C3.41875 11.91125 3.2125 12.4475 3 13 C0.41073669 10.41073669 0.62601957 8.97294721 0.375 5.375 C0.30023437 4.37210937 0.22546875 3.36921875 0.1484375 2.3359375 C0.09945312 1.56507812 0.05046875 0.79421875 0 0 Z " fill="#C1F2F0" transform="translate(834,65)"/>
<path d="M0 0 C0.33 0 0.66 0 1 0 C1.06058594 0.60328125 1.12117187 1.2065625 1.18359375 1.828125 C1.26738281 2.62734375 1.35117187 3.4265625 1.4375 4.25 C1.55931641 5.43335938 1.55931641 5.43335938 1.68359375 6.640625 C1.97634993 8.82364639 2.42064419 10.8773182 3 13 C2.01 12.67 1.02 12.34 0 12 C-1.16063604 7.74433453 -0.76173392 4.3164922 0 0 Z " fill="#F8CEAC" transform="translate(922,148)"/>
<path d="M0 0 C2.45823172 3.68734758 3.01242616 6.69699971 4 11 C3.01 11 2.02 11 1 11 C0.67 7.37 0.34 3.74 0 0 Z " fill="#CBF6F4" transform="translate(846,101)"/>
<path d="M0 0 C2.51699845 2.51699845 3.10964078 4.57554146 4 8 C3.625 10.375 3.625 10.375 3 12 C0.97649676 8.96474514 0.67875982 7.80573798 0.375 4.3125 C0.30023437 3.50425781 0.22546875 2.69601563 0.1484375 1.86328125 C0.09945312 1.24839844 0.05046875 0.63351563 0 0 Z " fill="#C3F3F2" transform="translate(838,78)"/>
<path d="M0 0 C2.29633824 3.44450737 2.54016485 5.93812283 3 10 C2.34 10 1.68 10 1 10 C-0.60725635 6.78548731 -0.05748185 3.56387464 0 0 Z " fill="#C3F2EE" transform="translate(823,31)"/>
<path d="M0 0 C0.33 0 0.66 0 1 0 C1.06058594 0.60328125 1.12117187 1.2065625 1.18359375 1.828125 C1.26738281 2.62734375 1.35117187 3.4265625 1.4375 4.25 C1.51871094 5.03890625 1.59992187 5.8278125 1.68359375 6.640625 C1.97634993 8.82364639 2.42064419 10.8773182 3 13 C2.01 12.67 1.02 12.34 0 12 C0 8.04 0 4.08 0 0 Z " fill="#B2E8E4" transform="translate(859,148)"/>
<path d="M0 0 C2.5 1.1875 2.5 1.1875 5 3 C5.3125 5.6875 5.3125 5.6875 5 8 C2.20127563 5.47211993 0.54226981 3.79588866 0 0 Z " fill="#D6702A" transform="translate(943,140)"/>
<path d="M0 0 C6.52307692 0.61538462 6.52307692 0.61538462 8.9375 2.5625 C9.288125 3.036875 9.63875 3.51125 10 4 C9.67 4.66 9.34 5.32 9 6 C8.01 5.34 7.02 4.68 6 4 C6 3.34 6 2.68 6 2 C3.03 1.505 3.03 1.505 0 1 C0 0.67 0 0.34 0 0 Z " fill="#45A19C" transform="translate(965,35)"/>
</svg>
